HIERARCHY
ROOT Hips
{
	OFFSET 0.00000 0.00000 0.00000
	CHANNELS 6 Xposition Yposition Zposition Zrotation Yrotation Xrotation 
	JOINT LHipJoint
	{
		OFFSET 0 0 0
		CHANNELS 3 Zrotation Yrotation Xrotation
		JOINT LeftHip
		{
			OFFSET 1.77779 -1.88989 0.48267
			CHANNELS 3 Zrotation Yrotation Xrotation
			JOINT LeftKnee
			{
				OFFSET 2.53442 -6.96327 0.00000
				CHANNELS 3 Zrotation Yrotation Xrotation
				JOINT LeftAnkle
				{
					OFFSET 2.71068 -7.44755 0.00000
					CHANNELS 3 Zrotation Yrotation Xrotation
					JOINT LeftToe
					{
						OFFSET 0.17992 -0.49431 2.22524
						CHANNELS 3 Zrotation Yrotation Xrotation
						End Site
						{
							OFFSET 0.00000 -0.00000 1.14687
						}
					}
				}
			}
		}
	}
	JOINT RHipJoint
	{
		OFFSET 0 0 0
		CHANNELS 3 Zrotation Yrotation Xrotation
		JOINT RightHip
		{
			OFFSET -1.58469 -1.88989 0.48267
			CHANNELS 3 Zrotation Yrotation Xrotation
			JOINT RightKnee
			{
				OFFSET -2.60386 -7.15404 0.00000
				CHANNELS 3 Zrotation Yrotation Xrotation
				JOINT RightAnkle
				{
					OFFSET -2.73334 -7.50979 0.00000
					CHANNELS 3 Zrotation Yrotation Xrotation
					JOINT RightToe
					{
						OFFSET -0.25618 -0.70384 2.21822
						CHANNELS 3 Zrotation Yrotation Xrotation
						End Site
						{
							OFFSET -0.00000 -0.00000 1.16381
						}
					}
				}
			}
		}
	}
	JOINT lowerback
	{
		OFFSET 0 0 0
		CHANNELS 3 Zrotation Yrotation Xrotation
		JOINT Chest
		{
			OFFSET 0.03410 2.01612 -0.22230
			CHANNELS 3 Zrotation Yrotation Xrotation
			JOINT Chest2
			{
				OFFSET 0.03465 2.03012 0.00937
				CHANNELS 3 Zrotation Yrotation Xrotation
				JOINT lowerneck
				{
					OFFSET 0 0 0
					CHANNELS 3 Zrotation Yrotation Xrotation
					JOINT Neck
					{
						OFFSET -0.00219 1.70459 0.20857
						CHANNELS 3 Zrotation Yrotation Xrotation
						JOINT Head
						{
							OFFSET 0.02518 1.72339 -0.22179
							CHANNELS 3 Zrotation Yrotation Xrotation
							End Site
							{
								OFFSET 0.00282 1.74122 -0.09823
							}
						}
					}
				}
				JOINT LeftCollar
				{
					OFFSET 0 0 0
					CHANNELS 3 Zrotation Yrotation Xrotation
					JOINT LeftShoulder
					{
						OFFSET 3.36358 1.00547 -0.37661
CHANNELS 3 Zrotation Xrotation Yrotation
						JOINT LeftElbow
						{
OFFSET 0 -5.065070 0.000000
CHANNELS 3 Zrotation Xrotation Yrotation
							JOINT LeftWrist
							{
OFFSET 0 -3.601960 0.000000
CHANNELS 3 Zrotation Xrotation Yrotation
								JOINT lhand
								{
									OFFSET 0 0 0
CHANNELS 3 Zrotation Xrotation Yrotation
									JOINT LFingers
									{
OFFSET 0 -0.450350 0.000000
CHANNELS 3 Zrotation Xrotation Yrotation
										End Site
										{
OFFSET 0 -0.363080 0.000000
										}
									}
								}
								JOINT LThumb
								{
OFFSET 0 0.000000 0.000000
CHANNELS 3 Zrotation Xrotation Yrotation
									End Site
									{
OFFSET 0 -0.368620 0.368620
									}
								}
							}
						}
					}
				}
				JOINT RightCollar
				{
					OFFSET 0 0 0
					CHANNELS 3 Zrotation Yrotation Xrotation
					JOINT RightShoulder
					{
						OFFSET -3.50159 0.80383 -0.71526
CHANNELS 3 Zrotation Xrotation Yrotation
						JOINT RightElbow
						{
OFFSET 0 -5.363940 0.000000
CHANNELS 3 Zrotation Xrotation Yrotation
							JOINT RightWrist
							{
OFFSET 0 -3.580350 0.000000
CHANNELS 3 Zrotation Xrotation Yrotation
								JOINT rhand
								{
									OFFSET 0 0 0
CHANNELS 3 Zrotation Xrotation Yrotation
									JOINT RFingers
									{
OFFSET 0 -0.663750 0.000000
CHANNELS 3 Zrotation Xrotation Yrotation
										End Site
										{
OFFSET 0 -0.535130 0.000000
										}
									}
								}
								JOINT RThumb
								{
OFFSET 0 0.000000 0.000000
CHANNELS 3 Zrotation Xrotation Yrotation
									End Site
									{
OFFSET 0 -0.543300 0.543300
									}
								}
							}
						}
					}
				}
			}
		}
	}
}
MOTION
Frames: 12
Frame Time: 0.008333333333333333
0.697600 17.662800 -27.960500 0.066000 -0.002000 -0.231700 0.000000 0.000000 0.000000 -24.574200 0.696800 10.648200 2.972400 10.650200 31.109000 -0.307400 -11.839300 -2.800100 0.560700 -4.796100 -13.328000 0.000000 0.000000 0.000000 21.555800 12.704800 -28.460100 -2.763400 -10.301900 29.960000 -0.043800 -1.757500 -5.009700 -0.086900 -1.901600 5.233900 -1.922400 -1.617200 11.276300 3.671200 -2.165100 -0.324000 5.335600 -0.935600 -6.463600 -2.897600 -1.414900 -13.291100 -2.049100 -0.853500 21.061700 -0.307400 -0.854000 8.787700 0.000000 -0.000000 0.000000 5.623900 -4.440800 -20.947800 18.295800 -28.534300 4.689700 32.088800 3.253600 -17.350700 0.000000 0.000000 0.000000 -7.125000 0.000000 0.000000 4.162700 50.176900 -0.532000 0.000000 -0.000000 0.000000 -1.871000 3.775300 -11.476700 -9.265400 -15.582400 -1.270500 -21.194900 6.907600 -20.433100 0.000000 0.000000 0.000000 7.125000 0.000000 -0.000000 4.660500 8.257800 3.956300
0.685225 17.680864 -27.807666 0.141883 0.037400 -0.292862 0.000000 0.000000 0.000000 -24.465958 0.644883 10.131382 3.228142 11.051166 32.457478 -0.416282 -12.271132 -0.260457 0.524927 -4.641915 -12.890265 0.000000 0.000000 0.000000 21.632252 12.592077 -28.120367 -2.849382 -10.446555 30.435925 -0.055748 -1.598337 -5.347015 -0.125660 -2.272483 6.259856 -1.369382 -1.162326 11.050356 3.037605 -1.538830 0.452045 4.214701 -0.679929 -5.605270 -1.813967 -1.933781 -16.303041 -1.931043 -1.769507 21.852609 -0.602826 -1.194018 9.610541 0.000000 0.000000 0.000000 6.501716 -6.237396 -22.249411 17.975624 -28.125155 4.538146 32.829215 4.095430 -18.289251 0.000000 0.000000 0.000000 -7.125000 0.000000 0.000000 4.837046 51.390538 -0.771029 0.000000 0.000000 0.000000 -0.581621 2.205714 -13.957385 -9.252456 -15.561847 -1.267015 -20.950537 7.621701 -20.672272 0.000000 0.000000 0.000000 7.125000 0.000000 0.000000 4.835807 8.044231 4.126913
0.670697 17.699139 -27.659774 0.167716 -0.007464 -0.332272 0.000000 0.000000 0.000000 -24.291825 0.590559 9.513955 3.493008 11.448289 33.813306 -0.467173 -12.311468 2.176085 0.574051 -4.841550 -13.459293 0.000000 0.000000 0.000000 21.767161 12.588790 -27.759937 -2.922187 -10.567600 30.835528 -0.059671 -1.794049 -5.652399 -0.169868 -2.642437 7.285474 -1.224417 -0.993017 10.917672 2.818060 -1.311743 0.689737 3.849338 -0.585477 -5.310679 -1.437762 -2.129337 -17.197638 -1.827812 -2.125408 22.068883 -0.684956 -1.322639 9.847513 0.000000 0.000000 0.000000 6.694025 -6.619685 -22.574206 17.789720 -27.886986 4.450497 33.140966 4.441650 -18.759267 0.000000 0.000000 0.000000 -7.125000 0.000000 0.000000 5.113899 51.987345 -0.881700 0.000000 0.000000 0.000000 -0.143530 1.721747 -14.968897 -9.227602 -15.522371 -1.260363 -20.819876 7.777640 -20.750773 0.000000 0.000000 0.000000 7.125000 0.000000 0.000000 4.925584 7.981660 4.209843
0.655136 17.715182 -27.516931 0.153180 -0.097698 -0.379045 0.000000 0.000000 0.000000 -24.071850 0.505447 8.853174 3.770749 11.846296 35.193966 -0.470971 -12.187274 4.862167 0.613340 -4.978764 -13.854423 0.000000 0.000000 0.000000 21.956332 12.629711 -27.362972 -2.982494 -10.666543 31.163456 -0.056076 -2.262461 -5.906286 -0.216346 -2.991936 8.256383 -1.327958 -1.003269 10.895343 2.864545 -1.334389 0.598798 3.962210 -0.591355 -5.388881 -1.510743 -2.116961 -16.824467 -1.736908 -2.120882 21.948933 -0.633894 -1.314975 9.737091 0.000000 0.000000 0.000000 6.444926 -6.143792 -22.277644 17.676732 -27.741088 4.397852 33.088948 4.381797 -18.803471 0.000000 0.000000 0.000000 -7.125000 0.000000 0.000000 5.055429 52.027891 -0.877649 0.000000 0.000000 0.000000 -0.244527 1.913450 -14.895942 -9.218483 -15.507847 -1.257941 -20.855377 7.434567 -20.629607 0.000000 0.000000 0.000000 7.125000 0.000000 0.000000 4.893184 8.103234 4.170857
0.641481 17.720942 -27.381308 0.112074 -0.134964 -0.521993 0.000000 0.000000 0.000000 -23.848467 0.294296 8.302432 4.077199 12.259495 36.660287 -0.442595 -12.509299 8.932423 0.359021 -3.799619 -10.520031 0.000000 0.000000 0.000000 22.207309 12.538182 -26.869196 -3.027726 -10.739724 31.407108 -0.043702 -2.860781 -6.031881 -0.256528 -3.255715 8.991678 -1.299510 -0.945591 11.074490 2.837093 -1.256585 0.678664 3.909013 -0.554373 -5.412208 -1.434290 -2.161481 -17.230056 -1.655477 -2.213977 22.074243 -0.637593 -1.343067 9.856854 0.000000 0.000000 0.000000 6.314068 -6.138956 -22.182558 17.482010 -27.488617 4.307602 32.731364 4.031396 -18.391695 0.000000 0.000000 0.000000 -7.125000 0.000000 0.000000 4.722239 51.486821 -0.757032 0.000000 0.000000 0.000000 -0.159469 1.816800 -14.477623 -9.312644 -15.657196 -1.283188 -21.273270 6.583989 -20.120043 0.000000 0.000000 0.000000 7.125000 0.000000 0.000000 4.585312 8.574679 3.863910
0.626103 17.759669 -27.241738 0.045172 -0.134094 -0.664107 0.000000 0.000000 0.000000 -23.594619 0.164755 7.288270 4.433571 12.709051 38.299836 -0.399209 -13.162878 12.158449 0.334465 -3.713592 -10.272587 0.000000 0.000000 0.000000 22.483915 12.447153 -26.191464 -3.046161 -10.769431 31.506164 -0.042668 -3.028869 -6.157199 -0.349245 -3.773718 10.443562 -1.631359 -1.214188 11.325186 3.165101 -1.630361 0.207496 4.530600 -0.705517 -6.001412 -2.005326 -1.869943 -15.480429 -1.581607 -1.734856 21.657526 -0.432540 -1.153347 9.393340 0.000000 0.000000 0.000000 5.592704 -4.653465 -21.180590 17.430383 -27.421603 4.283675 32.691770 4.359837 -18.753435 0.000000 0.000000 0.000000 -7.125000 0.000000 0.000000 4.642384 51.891827 -0.789128 0.000000 0.000000 0.000000 -0.832584 2.893599 -12.971022 -9.383511 -15.769409 -1.302376 -21.138016 5.929320 -20.152340 0.000000 0.000000 0.000000 7.125000 0.000000 0.000000 4.674760 8.560522 3.940663
0.610350 17.799857 -27.101920 -0.108666 -0.159087 -0.763251 0.000000 0.000000 0.000000 -23.247294 0.014254 6.149011 4.817561 13.169562 40.016718 -0.297700 -13.488780 14.910755 0.263280 -2.837558 -7.852767 0.000000 0.000000 0.000000 22.841694 12.462547 -25.472133 -3.052359 -10.779358 31.539328 -0.048487 -2.923348 -6.256395 -0.464621 -4.356765 12.085023 -1.688352 -1.371835 11.429746 3.342391 -1.832664 -0.068022 4.795305 -0.791111 -6.328434 -2.320222 -1.701393 -14.336320 -1.436313 -1.487192 21.313591 -0.281162 -1.044473 9.065185 0.000000 0.000000 0.000000 5.197617 -3.688441 -20.603090 17.302259 -27.253703 4.225222 32.767428 4.709797 -19.210307 0.000000 0.000000 0.000000 -7.125000 0.000000 0.000000 4.673508 52.428378 -0.856341 0.000000 0.000000 0.000000 -1.163050 3.535862 -12.274210 -9.404174 -15.802122 -1.307984 -20.815183 5.837171 -20.536730 0.000000 0.000000 0.000000 7.125000 0.000000 0.000000 4.911606 8.206593 4.177543
0.594775 17.827167 -26.963523 -0.395060 -0.244785 -0.791343 0.000000 0.000000 0.000000 -22.758710 -0.208987 5.016947 5.224288 13.631406 41.781738 -0.106534 -13.115977 17.267481 0.007893 -0.140602 -0.388095 0.000000 0.000000 0.000000 23.322527 12.654638 -24.769055 -3.050652 -10.776585 31.530082 -0.060435 -2.562706 -6.312294 -0.593274 -4.929910 13.708944 -1.121110 -1.193541 11.258137 3.104073 -1.540224 0.237574 4.153389 -0.680379 -5.956840 -1.908659 -1.893342 -15.199557 -1.168765 -1.890008 21.342323 -0.315939 -1.171135 9.232882 0.000000 0.000000 0.000000 5.619137 -4.276165 -21.152339 16.980518 -26.831970 4.078575 32.887050 4.780347 -19.466191 0.000000 0.000000 0.000000 -7.125000 0.000000 0.000000 4.771509 52.744357 -0.911031 0.000000 0.000000 0.000000 -0.571842 2.910872 -13.428961 -9.352186 -15.719909 -1.293832 -20.437331 6.589249 -21.254884 0.000000 0.000000 0.000000 7.125000 0.000000 0.000000 5.209024 7.513258 4.502484
0.580304 17.849857 -26.828781 -0.735648 -0.198723 -0.747866 0.000000 0.000000 0.000000 -22.205038 -0.658999 3.799731 5.675487 14.099731 43.652317 -0.093874 -14.335878 19.274570 0.003478 0.297680 0.818007 0.000000 0.000000 0.000000 23.881133 12.701111 -24.165539 -3.009231 -10.709827 31.307511 -0.064178 -2.516812 -6.392325 -0.586720 -4.904169 13.635496 -0.672322 -1.155970 11.130379 3.058878 -1.438840 0.366249 3.826015 -0.647973 -5.768855 -1.770545 -1.985661 -15.642278 -0.954031 -2.093149 21.351129 -0.295557 -1.230503 9.318807 0.000000 0.000000 0.000000 5.739352 -4.399729 -21.490330 16.795365 -26.586882 3.995430 32.386206 3.905340 -18.764316 0.000000 0.000000 0.000000 -7.125000 0.000000 0.000000 4.324268 51.845883 -0.734607 0.000000 0.000000 0.000000 -0.379981 2.515825 -13.922913 -9.277997 -15.602256 -1.273888 -20.839489 6.962526 -21.786534 0.000000 0.000000 0.000000 7.125000 0.000000 0.000000 4.998914 6.897283 4.378365
0.566908 17.876208 -26.694634 -1.052379 -0.104600 -0.685189 0.000000 0.000000 0.000000 -21.668430 -1.156136 2.607360 6.129968 14.546504 45.488797 0.123477 -14.668390 21.950227 0.038255 1.041012 2.864076 0.000000 0.000000 0.000000 24.412577 12.657377 -23.648295 -2.968563 -10.643860 31.088041 -0.069747 -2.601267 -6.641196 -0.508317 -4.550703 12.634684 -0.309239 -1.110328 11.123921 3.061833 -1.332132 0.418197 3.604342 -0.606573 -5.726041 -1.581379 -2.099365 -16.140959 -0.901187 -2.301865 21.440122 -0.342234 -1.306225 9.440662 0.000000 0.000000 0.000000 5.775880 -4.442292 -21.898078 16.640674 -26.381412 3.926384 32.046893 3.255275 -18.301421 0.000000 0.000000 0.000000 -7.125000 0.000000 0.000000 4.021654 51.252673 -0.620984 0.000000 0.000000 0.000000 -0.239957 2.258874 -13.896151 -9.300151 -15.637345 -1.279885 -21.526515 6.735899 -21.869536 0.000000 0.000000 0.000000 7.125000 0.000000 0.000000 4.571091 6.702442 4.020544
0.554768 17.906728 -26.561017 -1.345910 -0.034731 -0.629700 0.000000 0.000000 0.000000 -21.162763 -1.622206 1.392868 6.585607 14.970342 47.284586 0.525977 -14.147693 25.089254 0.126444 2.170709 5.983719 0.000000 0.000000 0.000000 24.922988 12.560618 -23.157341 -2.929090 -10.579340 30.873931 -0.077601 -2.737521 -7.001157 -0.393492 -4.027298 11.153578 -0.080356 -1.090153 11.227985 3.157503 -1.266589 0.343981 3.571831 -0.576213 -5.870214 -1.471576 -2.177432 -16.340738 -0.961143 -2.422996 21.499860 -0.400181 -1.359964 9.496780 0.000000 0.000000 0.000000 5.640352 -4.213286 -22.193650 16.528250 -26.231641 3.876480 31.890698 2.944983 -18.190150 0.000000 0.000000 0.000000 -7.125000 0.000000 0.000000 3.872177 51.096335 -0.582308 0.000000 0.000000 0.000000 -0.265135 2.282146 -13.158724 -9.411002 -15.812879 -1.309930 -22.344793 5.928984 -21.531792 0.000000 0.000000 0.000000 7.125000 0.000000 0.000000 4.023813 6.925488 3.519192
0.545024 17.943780 -26.428239 -1.621280 -0.277174 -0.683110 0.000000 0.000000 0.000000 -20.743519 -1.755767 -0.054465 7.039628 15.361636 49.017745 1.047205 -12.948493 27.889120 0.370878 3.808640 10.549671 0.000000 0.000000 0.000000 25.443646 12.535300 -22.462015 -2.887699 -10.510924 30.647774 -0.089051 -2.651183 -7.258393 -0.364191 -3.875957 10.728076 -0.230132 -1.258349 11.426263 3.575253 -1.468708 -0.110751 4.155074 -0.652594 -6.437455 -2.034764 -1.962725 -14.651602 -0.960148 -2.025586 21.067246 -0.232839 -1.219221 9.040768 0.000000 0.000000 0.000000 4.891047 -2.804855 -21.570865 16.533655 -26.238895 3.878898 31.963808 3.397582 -18.845365 0.000000 0.000000 0.000000 -7.125000 0.000000 0.000000 3.871395 51.854459 -0.654209 0.000000 0.000000 0.000000 -1.012449 3.263511 -10.689346 -9.594132 -16.102047 -1.360353 -22.785372 4.454412 -20.778291 0.000000 0.000000 0.000000 7.125000 0.000000 0.000000 3.674194 7.648977 3.160542
